<svg width="18" height="18" viewBox="0 0 18 18" fill="none" xmlns="http://www.w3.org/2000/svg">
<path d="M7.94531 1.44434C11.5348 1.44457 14.4451 4.35483 14.4453 7.94434C14.4452 9.47876 13.9108 10.8872 13.0215 11.999L15.6777 14.6553C15.9598 14.9373 15.9597 15.3947 15.6777 15.6768C15.3957 15.9588 14.9383 15.9588 14.6562 15.6768L12 13.0205C10.8882 13.9098 9.47973 14.4442 7.94531 14.4443C4.35581 14.4441 1.44555 11.5338 1.44531 7.94434C1.44555 4.35483 4.35581 1.44457 7.94531 1.44434ZM7.94531 2.88965C5.15355 2.88988 2.89086 5.15257 2.89062 7.94434C2.89086 10.7361 5.15355 12.9998 7.94531 13C9.32231 12.9999 10.5697 12.4478 11.4814 11.5547C11.4929 11.5415 11.5021 11.5262 11.5146 11.5137C11.5277 11.5007 11.5429 11.4903 11.5566 11.4785C12.4489 10.5669 13.0009 9.32059 13.001 7.94434C13.0007 5.15257 10.7371 2.88988 7.94531 2.88965Z" fill="#62748E"/>
</svg>
